<svg xmlns="http://www.w3.org/2000/svg" viewBox="0 0 1600 900" width="1600" height="900" role="img" aria-label="Shot Studio: a thirty-nine shot sequence on one production desk"><rect width="1600" height="900" fill="#FAF8F5"/><rect x="0" y="0" width="1600" height="196" fill="#F3E7DC"/><rect x="0" y="194" width="1600" height="4" fill="#BF4E10"/><text x="72" y="130" font-family="Space Grotesk, Inter, sans-serif" font-size="76" font-weight="700" fill="#2A2622" letter-spacing="-1">Thirty-nine shots, one desk</text><text x="72" y="176" font-family="JetBrains Mono, ui-monospace, monospace" font-size="46" fill="#BF4E10" text-anchor="start" font-weight="700" letter-spacing="1">SHOT STUDIO · AI VIDEO</text><rect x="96" y="290" width="132" height="124" fill="#BF4E10" stroke="#BF4E10" stroke-width="3"/><rect x="118" y="382" width="88" height="12" fill="#FFFFFF" opacity="0.75"/><rect x="248" y="290" width="132" height="124" fill="#BF4E10" stroke="#BF4E10" stroke-width="3"/><rect x="270" y="382" width="88" height="12" fill="#FFFFFF" opacity="0.75"/><rect x="400" y="290" width="132" height="124" fill="#BF4E10" stroke="#BF4E10" stroke-width="3"/><rect x="422" y="382" width="88" height="12" fill="#FFFFFF" opacity="0.75"/><rect x="552" y="290" width="132" height="124" fill="#BF4E10" stroke="#BF4E10" stroke-width="3"/><rect x="574" y="382" width="88" height="12" fill="#FFFFFF" opacity="0.75"/><rect x="704" y="290" width="132" height="124" fill="#BF4E10" stroke="#BF4E10" stroke-width="3"/><rect x="726" y="382" width="88" height="12" fill="#FFFFFF" opacity="0.75"/><rect x="856" y="290" width="132" height="124" fill="#BF4E10" stroke="#BF4E10" stroke-width="3"/><rect x="878" y="382" width="88" height="12" fill="#FFFFFF" opacity="0.75"/><rect x="1008" y="290" width="132" height="124" fill="#BF4E10" stroke="#BF4E10" stroke-width="3"/><rect x="1030" y="382" width="88" height="12" fill="#FFFFFF" opacity="0.75"/><rect x="1160" y="290" width="132" height="124" fill="#BF4E10" stroke="#BF4E10" stroke-width="3"/><rect x="1182" y="382" width="88" height="12" fill="#FFFFFF" opacity="0.75"/><rect x="1312" y="290" width="132" height="124" fill="#BF4E10" stroke="#BF4E10" stroke-width="3"/><rect x="1334" y="382" width="88" height="12" fill="#FFFFFF" opacity="0.75"/><rect x="96" y="440" width="132" height="124" fill="#BF4E10" stroke="#BF4E10" stroke-width="3"/><rect x="118" y="532" width="88" height="12" fill="#FFFFFF" opacity="0.75"/><rect x="248" y="440" width="132" height="124" fill="#BF4E10" stroke="#BF4E10" stroke-width="3"/><rect x="270" y="532" width="88" height="12" fill="#FFFFFF" opacity="0.75"/><rect x="400" y="440" width="132" height="124" fill="#BF4E10" stroke="#BF4E10" stroke-width="3"/><rect x="422" y="532" width="88" height="12" fill="#FFFFFF" opacity="0.75"/><rect x="552" y="440" width="132" height="124" fill="#BF4E10" stroke="#BF4E10" stroke-width="3"/><rect x="574" y="532" width="88" height="12" fill="#FFFFFF" opacity="0.75"/><rect x="704" y="440" width="132" height="124" fill="#BF4E10" stroke="#BF4E10" stroke-width="3"/><rect x="726" y="532" width="88" height="12" fill="#FFFFFF" opacity="0.75"/><rect x="856" y="440" width="132" height="124" fill="#BF4E10" stroke="#BF4E10" stroke-width="3"/><rect x="878" y="532" width="88" height="12" fill="#FFFFFF" opacity="0.75"/><rect x="1008" y="440" width="132" height="124" fill="#BF4E10" stroke="#BF4E10" stroke-width="3"/><rect x="1030" y="532" width="88" height="12" fill="#FFFFFF" opacity="0.75"/><rect x="1160" y="440" width="132" height="124" fill="#BF4E10" stroke="#BF4E10" stroke-width="3"/><rect x="1182" y="532" width="88" height="12" fill="#FFFFFF" opacity="0.75"/><rect x="1312" y="440" width="132" height="124" fill="#BF4E10" stroke="#BF4E10" stroke-width="3"/><rect x="1334" y="532" width="88" height="12" fill="#FFFFFF" opacity="0.75"/><rect x="96" y="590" width="132" height="124" fill="#BF4E10" stroke="#BF4E10" stroke-width="3"/><rect x="118" y="682" width="88" height="12" fill="#FFFFFF" opacity="0.75"/><rect x="248" y="590" width="132" height="124" fill="#BF4E10" stroke="#BF4E10" stroke-width="3"/><rect x="270" y="682" width="88" height="12" fill="#FFFFFF" opacity="0.75"/><rect x="400" y="590" width="132" height="124" fill="#FFFFFF" stroke="#DDD6CF" stroke-width="4"/><rect x="422" y="682" width="39" height="12" fill="#DDD6CF"/><rect x="552" y="590" width="132" height="124" fill="#FFFFFF" stroke="#DDD6CF" stroke-width="4"/><rect x="574" y="682" width="39" height="12" fill="#DDD6CF"/><rect x="704" y="590" width="132" height="124" fill="#FFFFFF" stroke="#DDD6CF" stroke-width="4"/><rect x="726" y="682" width="39" height="12" fill="#DDD6CF"/><rect x="856" y="590" width="132" height="124" fill="#FFFFFF" stroke="#DDD6CF" stroke-width="4"/><rect x="878" y="682" width="39" height="12" fill="#DDD6CF"/><rect x="1008" y="590" width="132" height="124" fill="#FFFFFF" stroke="#DDD6CF" stroke-width="4"/><rect x="1030" y="682" width="39" height="12" fill="#DDD6CF"/><rect x="1160" y="590" width="132" height="124" fill="#FFFFFF" stroke="#DDD6CF" stroke-width="4"/><rect x="1182" y="682" width="39" height="12" fill="#DDD6CF"/><rect x="1312" y="590" width="132" height="124" fill="#FFFFFF" stroke="#DDD6CF" stroke-width="4"/><rect x="1334" y="682" width="39" height="12" fill="#DDD6CF"/><text x="96" y="830" font-family="JetBrains Mono, ui-monospace, monospace" font-size="58" fill="#4E4A46" text-anchor="start" font-weight="700" letter-spacing="1">20 OF 39 GENERATED · EVERY TAKE KEPT</text></svg>